<?xml version="1.0" encoding="UTF-8" standalone="no"?>
<!DOCTYPE svg PUBLIC "-//W3C//DTD SVG 1.1//EN"
 "http://www.w3.org/Graphics/SVG/1.1/DTD/svg11.dtd">
<!-- Generated by graphviz version 8.1.0 (20230707.0739)
 -->
<!-- Title: dependency&#45;cruiser output Pages: 1 -->
<svg width="1017pt" height="1118pt"
 viewBox="0.00 0.00 1016.75 1118.00" xmlns="http://www.w3.org/2000/svg" xmlns:xlink="http://www.w3.org/1999/xlink">
<g id="graph0" class="graph" transform="scale(1 1) rotate(0) translate(4 1114)">
<title>dependency&#45;cruiser output</title>
<polygon fill="white" stroke="none" points="-4,4 -4,-1114 1012.75,-1114 1012.75,4 -4,4"/>
<g id="clust1" class="cluster">
<title>cluster_src</title>
<path fill="#ffffff" stroke="black" stroke-width="2" d="M20,-8C20,-8 988.75,-8 988.75,-8 994.75,-8 1000.75,-14 1000.75,-20 1000.75,-20 1000.75,-1090 1000.75,-1090 1000.75,-1096 994.75,-1102 988.75,-1102 988.75,-1102 20,-1102 20,-1102 14,-1102 8,-1096 8,-1090 8,-1090 8,-20 8,-20 8,-14 14,-8 20,-8"/>
<text text-anchor="middle" x="504.38" y="-1089.45" font-family="Helvetica,sans-Serif" font-weight="bold" font-size="9.00">src</text>
</g>
<g id="clust2" class="cluster">
<title>cluster_src/api</title>
<path fill="#ffffff" stroke="black" stroke-width="2" d="M338.25,-650C338.25,-650 734.38,-650 734.38,-650 740.38,-650 746.38,-656 746.38,-662 746.38,-662 746.38,-810 746.38,-810 746.38,-816 740.38,-822 734.38,-822 734.38,-822 338.25,-822 338.25,-822 332.25,-822 326.25,-816 326.25,-810 326.25,-810 326.25,-662 326.25,-662 326.25,-656 332.25,-650 338.25,-650"/>
<text text-anchor="middle" x="536.31" y="-809.45" font-family="Helvetica,sans-Serif" font-weight="bold" font-size="9.00">api</text>
</g>
<g id="clust3" class="cluster">
<title>cluster_src/api/middleware</title>
<path fill="#ffffff" stroke="black" stroke-width="2" d="M346.25,-744C346.25,-744 468.25,-744 468.25,-744 474.25,-744 480.25,-750 480.25,-756 480.25,-756 480.25,-784 480.25,-784 480.25,-790 474.25,-796 468.25,-796 468.25,-796 346.25,-796 346.25,-796 340.25,-796 334.25,-790 334.25,-784 334.25,-784 334.25,-756 334.25,-756 334.25,-750 340.25,-744 346.25,-744"/>
<text text-anchor="middle" x="407.25" y="-783.45" font-family="Helvetica,sans-Serif" font-weight="bold" font-size="9.00">middleware</text>
</g>
<g id="clust4" class="cluster">
<title>cluster_src/auth</title>
<path fill="#ffffff" stroke="black" stroke-width="2" d="M164.25,-16C164.25,-16 462.75,-16 462.75,-16 468.75,-16 474.75,-22 474.75,-28 474.75,-28 474.75,-300 474.75,-300 474.75,-306 468.75,-312 462.75,-312 462.75,-312 164.25,-312 164.25,-312 158.25,-312 152.25,-306 152.25,-300 152.25,-300 152.25,-28 152.25,-28 152.25,-22 158.25,-16 164.25,-16"/>
<text text-anchor="middle" x="313.5" y="-299.45" font-family="Helvetica,sans-Serif" font-weight="bold" font-size="9.00">auth</text>
</g>
<g id="clust5" class="cluster">
<title>cluster_src/auth/command</title>
<path fill="#ffffff" stroke="black" stroke-width="2" d="M174.12,-84C174.12,-84 299.88,-84 299.88,-84 305.88,-84 311.88,-90 311.88,-96 311.88,-96 311.88,-124 311.88,-124 311.88,-130 305.88,-136 299.88,-136 299.88,-136 174.12,-136 174.12,-136 168.12,-136 162.12,-130 162.12,-124 162.12,-124 162.12,-96 162.12,-96 162.12,-90 168.12,-84 174.12,-84"/>
<text text-anchor="middle" x="237" y="-123.45" font-family="Helvetica,sans-Serif" font-weight="bold" font-size="9.00">command</text>
</g>
<g id="clust6" class="cluster">
<title>cluster_src/auth/config</title>
<path fill="#ffffff" stroke="black" stroke-width="2" d="M197,-144C197,-144 443.88,-144 443.88,-144 449.88,-144 455.88,-150 455.88,-156 455.88,-156 455.88,-214 455.88,-214 455.88,-220 449.88,-226 443.88,-226 443.88,-226 197,-226 197,-226 191,-226 185,-220 185,-214 185,-214 185,-156 185,-156 185,-150 191,-144 197,-144"/>
<text text-anchor="middle" x="320.44" y="-213.45" font-family="Helvetica,sans-Serif" font-weight="bold" font-size="9.00">config</text>
</g>
<g id="clust7" class="cluster">
<title>cluster_src/auth/method</title>
<path fill="#ffffff" stroke="black" stroke-width="2" d="M172.25,-234C172.25,-234 301.75,-234 301.75,-234 307.75,-234 313.75,-240 313.75,-246 313.75,-246 313.75,-274 313.75,-274 313.75,-280 307.75,-286 301.75,-286 301.75,-286 172.25,-286 172.25,-286 166.25,-286 160.25,-280 160.25,-274 160.25,-274 160.25,-246 160.25,-246 160.25,-240 166.25,-234 172.25,-234"/>
<text text-anchor="middle" x="237" y="-273.45" font-family="Helvetica,sans-Serif" font-weight="bold" font-size="9.00">method</text>
</g>
<g id="clust8" class="cluster">
<title>cluster_src/auth/middleware</title>
<path fill="#ffffff" stroke="black" stroke-width="2" d="M176.75,-24C176.75,-24 297.25,-24 297.25,-24 303.25,-24 309.25,-30 309.25,-36 309.25,-36 309.25,-64 309.25,-64 309.25,-70 303.25,-76 297.25,-76 297.25,-76 176.75,-76 176.75,-76 170.75,-76 164.75,-70 164.75,-64 164.75,-64 164.75,-36 164.75,-36 164.75,-30 170.75,-24 176.75,-24"/>
<text text-anchor="middle" x="237" y="-63.45" font-family="Helvetica,sans-Serif" font-weight="bold" font-size="9.00">middleware</text>
</g>
<g id="clust9" class="cluster">
<title>cluster_src/auth/strategy</title>
<path fill="#ffffff" stroke="black" stroke-width="2" d="M359.75,-234C359.75,-234 454.75,-234 454.75,-234 460.75,-234 466.75,-240 466.75,-246 466.75,-246 466.75,-274 466.75,-274 466.75,-280 460.75,-286 454.75,-286 454.75,-286 359.75,-286 359.75,-286 353.75,-286 347.75,-280 347.75,-274 347.75,-274 347.75,-246 347.75,-246 347.75,-240 353.75,-234 359.75,-234"/>
<text text-anchor="middle" x="407.25" y="-273.45" font-family="Helvetica,sans-Serif" font-weight="bold" font-size="9.00">strategy</text>
</g>
<g id="clust10" class="cluster">
<title>cluster_src/core</title>
<path fill="#ffffff" stroke="black" stroke-width="2" d="M504.75,-830C504.75,-830 980.75,-830 980.75,-830 986.75,-830 992.75,-836 992.75,-842 992.75,-842 992.75,-1064 992.75,-1064 992.75,-1070 986.75,-1076 980.75,-1076 980.75,-1076 504.75,-1076 504.75,-1076 498.75,-1076 492.75,-1070 492.75,-1064 492.75,-1064 492.75,-842 492.75,-842 492.75,-836 498.75,-830 504.75,-830"/>
<text text-anchor="middle" x="742.75" y="-1063.45" font-family="Helvetica,sans-Serif" font-weight="bold" font-size="9.00">core</text>
</g>
<g id="clust11" class="cluster">
<title>cluster_src/core/error</title>
<path fill="#ffffff" stroke="black" stroke-width="2" d="M512.75,-838C512.75,-838 748.62,-838 748.62,-838 754.62,-838 760.62,-844 760.62,-850 760.62,-850 760.62,-908 760.62,-908 760.62,-914 754.62,-920 748.62,-920 748.62,-920 512.75,-920 512.75,-920 506.75,-920 500.75,-914 500.75,-908 500.75,-908 500.75,-850 500.75,-850 500.75,-844 506.75,-838 512.75,-838"/>
<text text-anchor="middle" x="630.69" y="-907.45" font-family="Helvetica,sans-Serif" font-weight="bold" font-size="9.00">error</text>
</g>
<g id="clust12" class="cluster">
<title>cluster_src/core/logger</title>
<path fill="#ffffff" stroke="black" stroke-width="2" d="M651.25,-928C651.25,-928 910.75,-928 910.75,-928 916.75,-928 922.75,-934 922.75,-940 922.75,-940 922.75,-1028 922.75,-1028 922.75,-1034 916.75,-1040 910.75,-1040 910.75,-1040 651.25,-1040 651.25,-1040 645.25,-1040 639.25,-1034 639.25,-1028 639.25,-1028 639.25,-940 639.25,-940 639.25,-934 645.25,-928 651.25,-928"/>
<text text-anchor="middle" x="781" y="-1027.45" font-family="Helvetica,sans-Serif" font-weight="bold" font-size="9.00">logger</text>
</g>
<g id="clust13" class="cluster">
<title>cluster_src/core/logger/middleware</title>
<path fill="#ffffff" stroke="black" stroke-width="2" d="M659.25,-962C659.25,-962 753.5,-962 753.5,-962 759.5,-962 765.5,-968 765.5,-974 765.5,-974 765.5,-1002 765.5,-1002 765.5,-1008 759.5,-1014 753.5,-1014 753.5,-1014 659.25,-1014 659.25,-1014 653.25,-1014 647.25,-1008 647.25,-1002 647.25,-1002 647.25,-974 647.25,-974 647.25,-968 653.25,-962 659.25,-962"/>
<text text-anchor="middle" x="706.38" y="-1001.45" font-family="Helvetica,sans-Serif" font-weight="bold" font-size="9.00">middleware</text>
</g>
<g id="clust17" class="cluster">
<title>cluster_src/user</title>
<path fill="#ffffff" stroke="black" stroke-width="2" d="M333.75,-382C333.75,-382 734.38,-382 734.38,-382 740.38,-382 746.38,-388 746.38,-394 746.38,-394 746.38,-606 746.38,-606 746.38,-612 740.38,-618 734.38,-618 734.38,-618 333.75,-618 333.75,-618 327.75,-618 321.75,-612 321.75,-606 321.75,-606 321.75,-394 321.75,-394 321.75,-388 327.75,-382 333.75,-382"/>
<text text-anchor="middle" x="534.06" y="-605.45" font-family="Helvetica,sans-Serif" font-weight="bold" font-size="9.00">user</text>
</g>
<g id="clust18" class="cluster">
<title>cluster_src/user/command</title>
<path fill="#ffffff" stroke="black" stroke-width="2" d="M341.75,-450C341.75,-450 472.75,-450 472.75,-450 478.75,-450 484.75,-456 484.75,-462 484.75,-462 484.75,-520 484.75,-520 484.75,-526 478.75,-532 472.75,-532 472.75,-532 341.75,-532 341.75,-532 335.75,-532 329.75,-526 329.75,-520 329.75,-520 329.75,-462 329.75,-462 329.75,-456 335.75,-450 341.75,-450"/>
<text text-anchor="middle" x="407.25" y="-519.45" font-family="Helvetica,sans-Serif" font-weight="bold" font-size="9.00">command</text>
</g>
<g id="clust19" class="cluster">
<title>cluster_src/user/error</title>
<path fill="#ffffff" stroke="black" stroke-width="2" d="M358.25,-540C358.25,-540 456.25,-540 456.25,-540 462.25,-540 468.25,-546 468.25,-552 468.25,-552 468.25,-580 468.25,-580 468.25,-586 462.25,-592 456.25,-592 456.25,-592 358.25,-592 358.25,-592 352.25,-592 346.25,-586 346.25,-580 346.25,-580 346.25,-552 346.25,-552 346.25,-546 352.25,-540 358.25,-540"/>
<text text-anchor="middle" x="407.25" y="-579.45" font-family="Helvetica,sans-Serif" font-weight="bold" font-size="9.00">error</text>
</g>
<g id="clust20" class="cluster">
<title>cluster_src/user/method</title>
<path fill="#ffffff" stroke="black" stroke-width="2" d="M355.25,-390C355.25,-390 459.25,-390 459.25,-390 465.25,-390 471.25,-396 471.25,-402 471.25,-402 471.25,-430 471.25,-430 471.25,-436 465.25,-442 459.25,-442 459.25,-442 355.25,-442 355.25,-442 349.25,-442 343.25,-436 343.25,-430 343.25,-430 343.25,-402 343.25,-402 343.25,-396 349.25,-390 355.25,-390"/>
<text text-anchor="middle" x="407.25" y="-429.45" font-family="Helvetica,sans-Serif" font-weight="bold" font-size="9.00">method</text>
</g>
<g id="clust21" class="cluster">
<title>cluster_src/user/model</title>
<path fill="#ffffff" stroke="black" stroke-width="2" d="M538.25,-390C538.25,-390 601.75,-390 601.75,-390 607.75,-390 613.75,-396 613.75,-402 613.75,-402 613.75,-430 613.75,-430 613.75,-436 607.75,-442 601.75,-442 601.75,-442 538.25,-442 538.25,-442 532.25,-442 526.25,-436 526.25,-430 526.25,-430 526.25,-402 526.25,-402 526.25,-396 532.25,-390 538.25,-390"/>
<text text-anchor="middle" x="570" y="-429.45" font-family="Helvetica,sans-Serif" font-weight="bold" font-size="9.00">model</text>
</g>
<g id="clust14" class="cluster">
<title>cluster_src/newsroom</title>
<path fill="#ffffff" stroke="black" stroke-width="2" d="M28,-963C28,-963 132.25,-963 132.25,-963 138.25,-963 144.25,-969 144.25,-975 144.25,-975 144.25,-1037 144.25,-1037 144.25,-1043 138.25,-1049 132.25,-1049 132.25,-1049 28,-1049 28,-1049 22,-1049 16,-1043 16,-1037 16,-1037 16,-975 16,-975 16,-969 22,-963 28,-963"/>
<text text-anchor="middle" x="80.12" y="-1036.45" font-family="Helvetica,sans-Serif" font-weight="bold" font-size="9.00">newsroom</text>
</g>
<g id="clust15" class="cluster">
<title>cluster_src/newsroom/model</title>
<path fill="#ffffff" stroke="black" stroke-width="2" d="M36,-971C36,-971 124.25,-971 124.25,-971 130.25,-971 136.25,-977 136.25,-983 136.25,-983 136.25,-1011 136.25,-1011 136.25,-1017 130.25,-1023 124.25,-1023 124.25,-1023 36,-1023 36,-1023 30,-1023 24,-1017 24,-1011 24,-1011 24,-983 24,-983 24,-977 30,-971 36,-971"/>
<text text-anchor="middle" x="80.12" y="-1010.45" font-family="Helvetica,sans-Serif" font-weight="bold" font-size="9.00">model</text>
</g>
<g id="clust16" class="cluster">
<title>cluster_src/types</title>
<path fill="#ffffff" stroke="black" stroke-width="2" d="M370.25,-320C370.25,-320 444.25,-320 444.25,-320 450.25,-320 456.25,-326 456.25,-332 456.25,-332 456.25,-360 456.25,-360 456.25,-366 450.25,-372 444.25,-372 444.25,-372 370.25,-372 370.25,-372 364.25,-372 358.25,-366 358.25,-360 358.25,-360 358.25,-332 358.25,-332 358.25,-326 364.25,-320 370.25,-320"/>
<text text-anchor="middle" x="407.25" y="-359.45" font-family="Helvetica,sans-Serif" font-weight="bold" font-size="9.00">types</text>
</g>
<!-- src/api/abstract&#45;command.ts -->
<g id="node1" class="node">
<title>src/api/abstract&#45;command.ts</title>
<g id="a_node1"><a xlink:href="src/api/abstract-command.ts" xlink:title="abstract&#45;command.ts">
<path fill="#ddfeff" stroke="black" d="M451.71,-675.88C451.71,-675.88 362.79,-675.88 362.79,-675.88 359.83,-675.88 356.88,-672.92 356.88,-669.96 356.88,-669.96 356.88,-664.04 356.88,-664.04 356.88,-661.08 359.83,-658.12 362.79,-658.12 362.79,-658.12 451.71,-658.12 451.71,-658.12 454.67,-658.12 457.62,-661.08 457.62,-664.04 457.62,-664.04 457.62,-669.96 457.62,-669.96 457.62,-672.92 454.67,-675.88 451.71,-675.88"/>
<text text-anchor="start" x="364.88" y="-663.33" font-family="Helvetica,sans-Serif" font-size="9.00">abstract&#45;command.ts</text>
</a>
</g>
</g>
<!-- src/api/abstract&#45;method.ts -->
<g id="node2" class="node">
<title>src/api/abstract&#45;method.ts</title>
<g id="a_node2"><a xlink:href="src/api/abstract-method.ts" xlink:title="abstract&#45;method.ts">
<path fill="#ddfeff" stroke="black" d="M609.58,-675.88C609.58,-675.88 530.42,-675.88 530.42,-675.88 527.46,-675.88 524.5,-672.92 524.5,-669.96 524.5,-669.96 524.5,-664.04 524.5,-664.04 524.5,-661.08 527.46,-658.12 530.42,-658.12 530.42,-658.12 609.58,-658.12 609.58,-658.12 612.54,-658.12 615.5,-661.08 615.5,-664.04 615.5,-664.04 615.5,-669.96 615.5,-669.96 615.5,-672.92 612.54,-675.88 609.58,-675.88"/>
<text text-anchor="start" x="532.5" y="-663.33" font-family="Helvetica,sans-Serif" font-size="9.00">abstract&#45;method.ts</text>
</a>
</g>
</g>
<!-- src/api/constants.ts -->
<g id="node3" class="node">
<title>src/api/constants.ts</title>
<g id="a_node3"><a xlink:href="src/api/constants.ts" xlink:title="constants.ts">
<path fill="#ddfeff" stroke="black" d="M732.46,-675.88C732.46,-675.88 680.29,-675.88 680.29,-675.88 677.33,-675.88 674.38,-672.92 674.38,-669.96 674.38,-669.96 674.38,-664.04 674.38,-664.04 674.38,-661.08 677.33,-658.12 680.29,-658.12 680.29,-658.12 732.46,-658.12 732.46,-658.12 735.42,-658.12 738.38,-661.08 738.38,-664.04 738.38,-664.04 738.38,-669.96 738.38,-669.96 738.38,-672.92 735.42,-675.88 732.46,-675.88"/>
<text text-anchor="start" x="682.38" y="-663.33" font-family="Helvetica,sans-Serif" font-size="9.00">constants.ts</text>
</a>
</g>
</g>
<!-- src/api/abstract&#45;method.ts&#45;&gt;src/api/constants.ts -->
<g id="edge1" class="edge">
<title>src/api/abstract&#45;method.ts&#45;&gt;src/api/constants.ts</title>
<path fill="none" stroke="#000000" stroke-width="2" stroke-opacity="0.200000" d="M615.74,-667C631.7,-667 649.56,-667 665.12,-667"/>
<polygon fill="#000000" fill-opacity="0.200000" stroke="#000000" stroke-width="2" stroke-opacity="0.200000" points="664.98,-669.1 670.98,-667 664.98,-664.9 664.98,-669.1"/>
</g>
<!-- src/api/generated&#45;routes.ts -->
<g id="node4" class="node">
<title>src/api/generated&#45;routes.ts</title>
<g id="a_node4"><a xlink:href="src/api/generated-routes.ts" xlink:title="generated&#45;routes.ts">
<path fill="#ddfeff" stroke="black" d="M449.08,-705.88C449.08,-705.88 365.42,-705.88 365.42,-705.88 362.46,-705.88 359.5,-702.92 359.5,-699.96 359.5,-699.96 359.5,-694.04 359.5,-694.04 359.5,-691.08 362.46,-688.12 365.42,-688.12 365.42,-688.12 449.08,-688.12 449.08,-688.12 452.04,-688.12 455,-691.08 455,-694.04 455,-694.04 455,-699.96 455,-699.96 455,-702.92 452.04,-705.88 449.08,-705.88"/>
<text text-anchor="start" x="367.5" y="-693.33" font-family="Helvetica,sans-Serif" font-size="9.00">generated&#45;routes.ts</text>
</a>
</g>
</g>
<!-- src/api/generated&#45;routes.ts&#45;&gt;src/api/abstract&#45;method.ts -->
<g id="edge2" class="edge">
<title>src/api/generated&#45;routes.ts&#45;&gt;src/api/abstract&#45;method.ts</title>
<path fill="none" stroke="#000000" stroke-width="2" stroke-opacity="0.200000" d="M455.18,-688.24C474.06,-684.72 495.95,-680.63 515.45,-676.99"/>
<polygon fill="#000000" fill-opacity="0.200000" stroke="#000000" stroke-width="2" stroke-opacity="0.200000" points="516.71,-678.52 522.22,-675.36 515.94,-674.39 516.71,-678.52"/>
</g>
<!-- src/auth/method/register&#45;credentials&#45;method.ts -->
<g id="node5" class="node">
<title>src/auth/method/register&#45;credentials&#45;method.ts</title>
<g id="a_node5"><a xlink:href="src/auth/method/register-credentials-method.ts" xlink:title="register&#45;credentials&#45;method.ts">
<path fill="#ddfeff" stroke="black" d="M299.83,-259.88C299.83,-259.88 174.17,-259.88 174.17,-259.88 171.21,-259.88 168.25,-256.92 168.25,-253.96 168.25,-253.96 168.25,-248.04 168.25,-248.04 168.25,-245.08 171.21,-242.12 174.17,-242.12 174.17,-242.12 299.83,-242.12 299.83,-242.12 302.79,-242.12 305.75,-245.08 305.75,-248.04 305.75,-248.04 305.75,-253.96 305.75,-253.96 305.75,-256.92 302.79,-259.88 299.83,-259.88"/>
<text text-anchor="start" x="176.25" y="-247.32" font-family="Helvetica,sans-Serif" font-size="9.00">register&#45;credentials&#45;method.ts</text>
</a>
</g>
</g>
<!-- src/api/generated&#45;routes.ts&#45;&gt;src/auth/method/register&#45;credentials&#45;method.ts -->
<g id="edge3" class="edge">
<title>src/api/generated&#45;routes.ts&#45;&gt;src/auth/method/register&#45;credentials&#45;method.ts</title>
<path fill="none" stroke="#000000" stroke-width="2" stroke-opacity="0.200000" d="M359.38,-699.49C345.25,-697.7 331.04,-692.87 321.75,-682 306.66,-664.34 328.89,-281.61 313.75,-264 313.47,-263.67 313.18,-263.35 312.89,-263.03"/>
<polygon fill="#000000" fill-opacity="0.200000" stroke="#000000" stroke-width="2" stroke-opacity="0.200000" points="314.02,-260.54 308.09,-258.25 311.3,-263.74 314.02,-260.54"/>
</g>
<!-- src/user/method/find&#45;all&#45;users&#45;method.ts -->
<g id="node6" class="node">
<title>src/user/method/find&#45;all&#45;users&#45;method.ts</title>
<g id="a_node6"><a xlink:href="src/user/method/find-all-users-method.ts" xlink:title="find&#45;all&#45;users&#45;method.ts">
<path fill="#ddfeff" stroke="black" d="M457.33,-415.88C457.33,-415.88 357.17,-415.88 357.17,-415.88 354.21,-415.88 351.25,-412.92 351.25,-409.96 351.25,-409.96 351.25,-404.04 351.25,-404.04 351.25,-401.08 354.21,-398.12 357.17,-398.12 357.17,-398.12 457.33,-398.12 457.33,-398.12 460.29,-398.12 463.25,-401.08 463.25,-404.04 463.25,-404.04 463.25,-409.96 463.25,-409.96 463.25,-412.92 460.29,-415.88 457.33,-415.88"/>
<text text-anchor="start" x="359.25" y="-403.32" font-family="Helvetica,sans-Serif" font-size="9.00">find&#45;all&#45;users&#45;method.ts</text>
</a>
</g>
</g>
<!-- src/api/generated&#45;routes.ts&#45;&gt;src/user/method/find&#45;all&#45;users&#45;method.ts -->
<g id="edge4" class="edge">
<title>src/api/generated&#45;routes.ts&#45;&gt;src/user/method/find&#45;all&#45;users&#45;method.ts</title>
<path fill="none" stroke="#000000" stroke-width="2" stroke-opacity="0.200000" d="M359.07,-700.78C340.71,-699.27 322.93,-693.11 317.75,-676 314.16,-664.14 314.16,-464.86 317.75,-453 322.62,-436.91 336.48,-426.42 351.87,-419.59"/>
<polygon fill="#000000" fill-opacity="0.200000" stroke="#000000" stroke-width="2" stroke-opacity="0.200000" points="353.23,-421.51 358.02,-417.34 351.67,-417.61 353.23,-421.51"/>
</g>
<!-- src/auth/method/register&#45;credentials&#45;method.ts&#45;&gt;src/api/abstract&#45;method.ts -->
<g id="edge27" class="edge">
<title>src/auth/method/register&#45;credentials&#45;method.ts&#45;&gt;src/api/abstract&#45;method.ts</title>
<path fill="none" stroke="#000000" stroke-width="2" stroke-opacity="0.200000" d="M306.08,-257.26C308.9,-259.14 311.49,-261.37 313.75,-264 327.06,-279.45 308.12,-615.83 321.75,-631 346.17,-658.16 448.65,-646.46 484.75,-652 494.63,-653.52 505.14,-655.27 515.26,-657.03"/>
<polygon fill="#000000" fill-opacity="0.200000" stroke="#000000" stroke-width="2" stroke-opacity="0.200000" points="515.76,-659.61 522.03,-658.58 516.49,-655.47 515.76,-659.61"/>
</g>
<!-- src/auth/method/register&#45;credentials&#45;method.ts&#45;&gt;src/api/constants.ts -->
<g id="edge28" class="edge">
<title>src/auth/method/register&#45;credentials&#45;method.ts&#45;&gt;src/api/constants.ts</title>
<path fill="none" stroke="#000000" stroke-width="2" stroke-opacity="0.200000" d="M306.07,-257.27C308.89,-259.15 311.48,-261.37 313.75,-264 325.77,-277.92 309.81,-581.01 321.75,-595 333.1,-608.3 614.08,-648.68 631.25,-652 642.34,-654.14 654.34,-656.54 665.4,-658.78"/>
<polygon fill="#000000" fill-opacity="0.200000" stroke="#000000" stroke-width="2" stroke-opacity="0.200000" points="665.72,-661.39 672.02,-660.53 666.56,-657.28 665.72,-661.39"/>
</g>
<!-- src/user/model/user&#45;model.ts -->
<g id="node20" class="node">
<title>src/user/model/user&#45;model.ts</title>
<g id="a_node20"><a xlink:href="src/user/model/user-model.ts" xlink:title="user&#45;model.ts">
<path fill="#ddfeff" stroke="black" d="M599.83,-415.88C599.83,-415.88 540.17,-415.88 540.17,-415.88 537.21,-415.88 534.25,-412.92 534.25,-409.96 534.25,-409.96 534.25,-404.04 534.25,-404.04 534.25,-401.08 537.21,-398.12 540.17,-398.12 540.17,-398.12 599.83,-398.12 599.83,-398.12 602.79,-398.12 605.75,-401.08 605.75,-404.04 605.75,-404.04 605.75,-409.96 605.75,-409.96 605.75,-412.92 602.79,-415.88 599.83,-415.88"/>
<text text-anchor="start" x="542.25" y="-403.32" font-family="Helvetica,sans-Serif" font-size="9.00">user&#45;model.ts</text>
</a>
</g>
</g>
<!-- src/auth/method/register&#45;credentials&#45;method.ts&#45;&gt;src/user/model/user&#45;model.ts -->
<g id="edge30" class="edge">
<title>src/auth/method/register&#45;credentials&#45;method.ts&#45;&gt;src/user/model/user&#45;model.ts</title>
<path fill="none" stroke="#000000" stroke-width="2" stroke-opacity="0.200000" d="M305.92,-257.4C308.78,-259.25 311.42,-261.43 313.75,-264 330.36,-282.32 304.28,-357.5 321.75,-375 334.58,-387.85 466.8,-384.23 484.75,-387 498.52,-389.13 513.37,-392.34 526.7,-395.57"/>
<polygon fill="#000000" fill-opacity="0.200000" stroke="#000000" stroke-width="2" stroke-opacity="0.200000" points="526.89,-398.27 533.22,-397.68 527.9,-394.2 526.89,-398.27"/>
</g>
<!-- src/user/command/create&#45;user&#45;with&#45;credentials.ts -->
<g id="node23" class="node">
<title>src/user/command/create&#45;user&#45;with&#45;credentials.ts</title>
<g id="a_node23"><a xlink:href="src/user/command/create-user-with-credentials.ts" xlink:title="create&#45;user&#45;with&#45;credentials.ts">
<path fill="#ddfeff" stroke="black" d="M470.83,-505.88C470.83,-505.88 343.67,-505.88 343.67,-505.88 340.71,-505.88 337.75,-502.92 337.75,-499.96 337.75,-499.96 337.75,-494.04 337.75,-494.04 337.75,-491.08 340.71,-488.12 343.67,-488.12 343.67,-488.12 470.83,-488.12 470.83,-488.12 473.79,-488.12 476.75,-491.08 476.75,-494.04 476.75,-494.04 476.75,-499.96 476.75,-499.96 476.75,-502.92 473.79,-505.88 470.83,-505.88"/>
<text text-anchor="start" x="345.75" y="-493.32" font-family="Helvetica,sans-Serif" font-size="9.00">create&#45;user&#45;with&#45;credentials.ts</text>
</a>
</g>
</g>
<!-- src/auth/method/register&#45;credentials&#45;method.ts&#45;&gt;src/user/command/create&#45;user&#45;with&#45;credentials.ts -->
<g id="edge29" class="edge">
<title>src/auth/method/register&#45;credentials&#45;method.ts&#45;&gt;src/user/command/create&#45;user&#45;with&#45;credentials.ts</title>
<path fill="none" stroke="#000000" stroke-width="2" stroke-opacity="0.200000" d="M306.03,-257.3C308.86,-259.17 311.47,-261.39 313.75,-264 329.71,-282.24 305.84,-463.71 321.75,-482 324.16,-484.77 326.88,-487.14 329.84,-489.17"/>
<polygon fill="#000000" fill-opacity="0.200000" stroke="#000000" stroke-width="2" stroke-opacity="0.200000" points="329.37,-491.44 335.63,-492.54 331.43,-487.77 329.37,-491.44"/>
</g>
<!-- src/user/method/find&#45;all&#45;users&#45;method.ts&#45;&gt;src/api/abstract&#45;method.ts -->
<g id="edge52" class="edge">
<title>src/user/method/find&#45;all&#45;users&#45;method.ts&#45;&gt;src/api/abstract&#45;method.ts</title>
<path fill="none" stroke="#000000" stroke-width="2" stroke-opacity="0.200000" d="M440.97,-416.24C456.71,-422.38 474.37,-432.13 484.75,-447 500.41,-469.42 484.96,-481.79 492.75,-508 509.02,-562.76 542.08,-622.16 558.81,-650.35"/>
<polygon fill="#000000" fill-opacity="0.200000" stroke="#000000" stroke-width="2" stroke-opacity="0.200000" points="557.37,-651.68 562.26,-655.75 560.97,-649.52 557.37,-651.68"/>
</g>
<!-- src/user/method/find&#45;all&#45;users&#45;method.ts&#45;&gt;src/api/constants.ts -->
<g id="edge53" class="edge">
<title>src/user/method/find&#45;all&#45;users&#45;method.ts&#45;&gt;src/api/constants.ts</title>
<path fill="none" stroke="#000000" stroke-width="2" stroke-opacity="0.200000" d="M428.94,-416.34C483.05,-440.86 624.99,-505.8 631.25,-515 644.54,-534.53 627.53,-600.49 639.25,-621 647.37,-635.21 661.89,-646.04 675.25,-653.61"/>
<polygon fill="#000000" fill-opacity="0.200000" stroke="#000000" stroke-width="2" stroke-opacity="0.200000" points="674.65,-655.73 680.93,-656.7 676.62,-652.02 674.65,-655.73"/>
</g>
<!-- src/user/method/find&#45;all&#45;users&#45;method.ts&#45;&gt;src/user/model/user&#45;model.ts -->
<g id="edge51" class="edge">
<title>src/user/method/find&#45;all&#45;users&#45;method.ts&#45;&gt;src/user/model/user&#45;model.ts</title>
<path fill="none" stroke="#000000" stroke-width="2" stroke-opacity="0.200000" d="M463.57,-407C483.8,-407 506.38,-407 525.44,-407"/>
<polygon fill="#000000" fill-opacity="0.200000" stroke="#000000" stroke-width="2" stroke-opacity="0.200000" points="525.2,-409.1 531.2,-407 525.2,-404.9 525.2,-409.1"/>
</g>
<!-- src/api/middleware/error&#45;handler&#45;middleware.ts -->
<g id="node7" class="node">
<title>src/api/middleware/error&#45;handler&#45;middleware.ts</title>
<g id="a_node7"><a xlink:href="src/api/middleware/error-handler-middleware.ts" xlink:title="error&#45;handler&#45;middleware.ts">
<path fill="#ddfeff" stroke="black" d="M466.33,-769.88C466.33,-769.88 348.17,-769.88 348.17,-769.88 345.21,-769.88 342.25,-766.92 342.25,-763.96 342.25,-763.96 342.25,-758.04 342.25,-758.04 342.25,-755.08 345.21,-752.12 348.17,-752.12 348.17,-752.12 466.33,-752.12 466.33,-752.12 469.29,-752.12 472.25,-755.08 472.25,-758.04 472.25,-758.04 472.25,-763.96 472.25,-763.96 472.25,-766.92 469.29,-769.88 466.33,-769.88"/>
<text text-anchor="start" x="350.25" y="-757.33" font-family="Helvetica,sans-Serif" font-size="9.00">error&#45;handler&#45;middleware.ts</text>
</a>
</g>
</g>
<!-- src/core/error/application&#45;error.ts -->
<g id="node8" class="node">
<title>src/core/error/application&#45;error.ts</title>
<g id="a_node8"><a xlink:href="src/core/error/application-error.ts" xlink:title="application&#45;error.ts">
<path fill="#ddfeff" stroke="black" d="M746.71,-878.88C746.71,-878.88 666.04,-878.88 666.04,-878.88 663.08,-878.88 660.12,-875.92 660.12,-872.96 660.12,-872.96 660.12,-867.04 660.12,-867.04 660.12,-864.08 663.08,-861.12 666.04,-861.12 666.04,-861.12 746.71,-861.12 746.71,-861.12 749.67,-861.12 752.62,-864.08 752.62,-867.04 752.62,-867.04 752.62,-872.96 752.62,-872.96 752.62,-875.92 749.67,-878.88 746.71,-878.88"/>
<text text-anchor="start" x="668.12" y="-866.33" font-family="Helvetica,sans-Serif" font-size="9.00">application&#45;error.ts</text>
</a>
</g>
</g>
<!-- src/api/middleware/error&#45;handler&#45;middleware.ts&#45;&gt;src/core/error/application&#45;error.ts -->
<g id="edge5" class="edge">
<title>src/api/middleware/error&#45;handler&#45;middleware.ts&#45;&gt;src/core/error/application&#45;error.ts</title>
<path fill="none" stroke="#000000" stroke-width="2" stroke-opacity="0.200000" d="M472.49,-764.67C477.1,-767 481.28,-770.05 484.75,-774 500.15,-791.55 475.93,-967.81 492.75,-984 503.84,-994.67 619.66,-994.12 631.25,-984 641.21,-975.3 632.84,-936.57 639.25,-925 648.86,-907.65 666.3,-893.49 680.86,-883.89"/>
<polygon fill="#000000" fill-opacity="0.200000" stroke="#000000" stroke-width="2" stroke-opacity="0.200000" points="682.2,-885.27 686.16,-880.29 679.96,-881.72 682.2,-885.27"/>
</g>
<!-- src/core/logger/logger.ts -->
<g id="node9" class="node">
<title>src/core/logger/logger.ts</title>
<g id="a_node9"><a xlink:href="src/core/logger/logger.ts" xlink:title="logger.ts">
<path fill="#ddfeff" stroke="black" d="M727.46,-953.88C727.46,-953.88 685.29,-953.88 685.29,-953.88 682.33,-953.88 679.38,-950.92 679.38,-947.96 679.38,-947.96 679.38,-942.04 679.38,-942.04 679.38,-939.08 682.33,-936.12 685.29,-936.12 685.29,-936.12 727.46,-936.12 727.46,-936.12 730.42,-936.12 733.38,-939.08 733.38,-942.04 733.38,-942.04 733.38,-947.96 733.38,-947.96 733.38,-950.92 730.42,-953.88 727.46,-953.88"/>
<text text-anchor="start" x="688.75" y="-941.33" font-family="Helvetica,sans-Serif" font-size="9.00">logger.ts</text>
</a>
</g>
</g>
<!-- src/api/middleware/error&#45;handler&#45;middleware.ts&#45;&gt;src/core/logger/logger.ts -->
<g id="edge6" class="edge">
<title>src/api/middleware/error&#45;handler&#45;middleware.ts&#45;&gt;src/core/logger/logger.ts</title>
<path fill="none" stroke="#000000" stroke-width="2" stroke-opacity="0.200000" d="M472.5,-764.67C477.1,-767 481.29,-770.05 484.75,-774 500.65,-792.14 475.38,-974.26 492.75,-991 514.91,-1012.36 606.99,-1009.94 631.25,-991 642.81,-981.98 628.7,-969.18 639.25,-959 647.51,-951.03 659.12,-947.11 670.31,-945.3"/>
<polygon fill="#000000" fill-opacity="0.200000" stroke="#000000" stroke-width="2" stroke-opacity="0.200000" points="670.4,-947.05 676.12,-944.27 669.91,-942.88 670.4,-947.05"/>
</g>
<!-- src/core/mongo&#45;constants.ts -->
<g id="node10" class="node">
<title>src/core/mongo&#45;constants.ts</title>
<g id="a_node10"><a xlink:href="src/core/mongo-constants.ts" xlink:title="mongo&#45;constants.ts">
<path fill="#ddfeff" stroke="black" d="M611.83,-945.88C611.83,-945.88 528.17,-945.88 528.17,-945.88 525.21,-945.88 522.25,-942.92 522.25,-939.96 522.25,-939.96 522.25,-934.04 522.25,-934.04 522.25,-931.08 525.21,-928.12 528.17,-928.12 528.17,-928.12 611.83,-928.12 611.83,-928.12 614.79,-928.12 617.75,-931.08 617.75,-934.04 617.75,-934.04 617.75,-939.96 617.75,-939.96 617.75,-942.92 614.79,-945.88 611.83,-945.88"/>
<text text-anchor="start" x="530.25" y="-933.33" font-family="Helvetica,sans-Serif" font-size="9.00">mongo&#45;constants.ts</text>
</a>
</g>
</g>
<!-- src/api/middleware/error&#45;handler&#45;middleware.ts&#45;&gt;src/core/mongo&#45;constants.ts -->
<g id="edge7" class="edge">
<title>src/api/middleware/error&#45;handler&#45;middleware.ts&#45;&gt;src/core/mongo&#45;constants.ts</title>
<path fill="none" stroke="#000000" stroke-width="2" stroke-opacity="0.200000" d="M472.43,-764.73C477.05,-767.05 481.25,-770.08 484.75,-774 506.81,-798.75 470.85,-898.1 492.75,-923 498.29,-929.3 505.66,-933.36 513.63,-935.9"/>
<polygon fill="#000000" fill-opacity="0.200000" stroke="#000000" stroke-width="2" stroke-opacity="0.200000" points="513.77,-938.61 520.1,-938.03 514.79,-934.53 513.77,-938.61"/>
</g>
<!-- src/core/env.ts -->
<g id="node15" class="node">
<title>src/core/env.ts</title>
<g id="a_node15"><a xlink:href="src/core/env.ts" xlink:title="env.ts">
<path fill="#ddfeff" stroke="black" d="M978.83,-944.88C978.83,-944.88 936.67,-944.88 936.67,-944.88 933.71,-944.88 930.75,-941.92 930.75,-938.96 930.75,-938.96 930.75,-933.04 930.75,-933.04 930.75,-930.08 933.71,-927.12 936.67,-927.12 936.67,-927.12 978.83,-927.12 978.83,-927.12 981.79,-927.12 984.75,-930.08 984.75,-933.04 984.75,-933.04 984.75,-938.96 984.75,-938.96 984.75,-941.92 981.79,-944.88 978.83,-944.88"/>
<text text-anchor="start" x="945.75" y="-932.33" font-family="Helvetica,sans-Serif" font-size="9.00">env.ts</text>
</a>
</g>
</g>
<!-- src/core/logger/logger.ts&#45;&gt;src/core/env.ts -->
<g id="edge36" class="edge">
<title>src/core/logger/logger.ts&#45;&gt;src/core/env.ts</title>
<path fill="none" stroke="#000000" stroke-width="2" stroke-opacity="0.200000" d="M733.59,-944.05C778.68,-942.43 870.93,-939.1 921.56,-937.27"/>
<polygon fill="#000000" fill-opacity="0.200000" stroke="#000000" stroke-width="2" stroke-opacity="0.200000" points="921.59,-939.26 927.51,-936.95 921.44,-935.06 921.59,-939.26"/>
</g>
<!-- src/api/routes.ts -->
<g id="node11" class="node">
<title>src/api/routes.ts</title>
<g id="a_node11"><a xlink:href="src/api/routes.ts" xlink:title="routes.ts">
<path fill="#ddfeff" stroke="black" d="M428.33,-735.88C428.33,-735.88 386.17,-735.88 386.17,-735.88 383.21,-735.88 380.25,-732.92 380.25,-729.96 380.25,-729.96 380.25,-724.04 380.25,-724.04 380.25,-721.08 383.21,-718.12 386.17,-718.12 386.17,-718.12 428.33,-718.12 428.33,-718.12 431.29,-718.12 434.25,-721.08 434.25,-724.04 434.25,-724.04 434.25,-729.96 434.25,-729.96 434.25,-732.92 431.29,-735.88 428.33,-735.88"/>
<text text-anchor="start" x="390" y="-723.33" font-family="Helvetica,sans-Serif" font-size="9.00">routes.ts</text>
</a>
</g>
</g>
<!-- src/api/routes.ts&#45;&gt;src/api/abstract&#45;method.ts -->
<g id="edge9" class="edge">
<title>src/api/routes.ts&#45;&gt;src/api/abstract&#45;method.ts</title>
<path fill="none" stroke="#000000" stroke-width="2" stroke-opacity="0.200000" d="M434.61,-723.8C449.6,-721.5 468.56,-717.77 484.75,-712 507.04,-704.06 530.65,-691 547.18,-680.99"/>
<polygon fill="#000000" fill-opacity="0.200000" stroke="#000000" stroke-width="2" stroke-opacity="0.200000" points="548.69,-682.29 552.7,-677.35 546.49,-678.71 548.69,-682.29"/>
</g>
<!-- src/api/routes.ts&#45;&gt;src/auth/method/register&#45;credentials&#45;method.ts -->
<g id="edge8" class="edge">
<title>src/api/routes.ts&#45;&gt;src/auth/method/register&#45;credentials&#45;method.ts</title>
<path fill="none" stroke="#000000" stroke-width="2" stroke-opacity="0.200000" d="M379.88,-730.27C360.67,-731.03 335.68,-728.32 321.75,-712 305.59,-693.07 329.96,-282.89 313.75,-264 313.47,-263.67 313.18,-263.35 312.89,-263.03"/>
<polygon fill="#000000" fill-opacity="0.200000" stroke="#000000" stroke-width="2" stroke-opacity="0.200000" points="314.02,-260.54 308.09,-258.25 311.3,-263.74 314.02,-260.54"/>
</g>
<!-- src/app.ts -->
<g id="node12" class="node">
<title>src/app.ts</title>
<g id="a_node12"><a xlink:href="src/app.ts" xlink:title="app.ts">
<path fill="#ddfeff" stroke="black" d="M101.21,-848.88C101.21,-848.88 59.04,-848.88 59.04,-848.88 56.08,-848.88 53.12,-845.92 53.12,-842.96 53.12,-842.96 53.12,-837.04 53.12,-837.04 53.12,-834.08 56.08,-831.12 59.04,-831.12 59.04,-831.12 101.21,-831.12 101.21,-831.12 104.17,-831.12 107.12,-834.08 107.12,-837.04 107.12,-837.04 107.12,-842.96 107.12,-842.96 107.12,-845.92 104.17,-848.88 101.21,-848.88"/>
<text text-anchor="start" x="67.75" y="-836.33" font-family="Helvetica,sans-Serif" font-size="9.00">app.ts</text>
</a>
</g>
</g>
<!-- src/app.ts&#45;&gt;src/api/middleware/error&#45;handler&#45;middleware.ts -->
<g id="edge10" class="edge">
<title>src/app.ts&#45;&gt;src/api/middleware/error&#45;handler&#45;middleware.ts</title>
<path fill="none" stroke="#000000" stroke-width="2" stroke-opacity="0.200000" d="M107.58,-831.67C151.63,-818.03 242.95,-790.81 321.75,-774 325.53,-773.19 329.41,-772.42 333.33,-771.67"/>
<polygon fill="#000000" fill-opacity="0.200000" stroke="#000000" stroke-width="2" stroke-opacity="0.200000" points="334.45,-773.24 339.98,-770.1 333.7,-769.11 334.45,-773.24"/>
</g>
<!-- src/app.ts&#45;&gt;src/api/routes.ts -->
<g id="edge11" class="edge">
<title>src/app.ts&#45;&gt;src/api/routes.ts</title>
<path fill="none" stroke="#000000" stroke-width="2" stroke-opacity="0.200000" d="M87.86,-830.92C99.33,-816.2 124.13,-787.32 152.25,-773 223.87,-736.53 319.79,-728.58 370.83,-727.09"/>
<polygon fill="#000000" fill-opacity="0.200000" stroke="#000000" stroke-width="2" stroke-opacity="0.200000" points="370.87,-729.12 376.82,-726.88 370.77,-724.92 370.87,-729.12"/>
</g>
<!-- src/auth/config/passport&#45;config.ts -->
<g id="node13" class="node">
<title>src/auth/config/passport&#45;config.ts</title>
<g id="a_node13"><a xlink:href="src/auth/config/passport-config.ts" xlink:title="passport&#45;config.ts">
<path fill="#ddfeff" stroke="black" d="M275.08,-199.88C275.08,-199.88 198.92,-199.88 198.92,-199.88 195.96,-199.88 193,-196.92 193,-193.96 193,-193.96 193,-188.04 193,-188.04 193,-185.08 195.96,-182.12 198.92,-182.12 198.92,-182.12 275.08,-182.12 275.08,-182.12 278.04,-182.12 281,-185.08 281,-188.04 281,-188.04 281,-193.96 281,-193.96 281,-196.92 278.04,-199.88 275.08,-199.88"/>
<text text-anchor="start" x="201" y="-187.32" font-family="Helvetica,sans-Serif" font-size="9.00">passport&#45;config.ts</text>
</a>
</g>
</g>
<!-- src/app.ts&#45;&gt;src/auth/config/passport&#45;config.ts -->
<g id="edge12" class="edge">
<title>src/app.ts&#45;&gt;src/auth/config/passport&#45;config.ts</title>
<path fill="none" stroke="#000000" stroke-width="2" stroke-opacity="0.200000" d="M81.02,-830.87C80.38,-762.7 79.35,-332.96 152.25,-231 161.26,-218.4 175.31,-209.62 189.35,-203.57"/>
<polygon fill="#000000" fill-opacity="0.200000" stroke="#000000" stroke-width="2" stroke-opacity="0.200000" points="190.77,-205.48 195.58,-201.32 189.22,-201.57 190.77,-205.48"/>
</g>
<!-- src/core/db.ts -->
<g id="node14" class="node">
<title>src/core/db.ts</title>
<g id="a_node14"><a xlink:href="src/core/db.ts" xlink:title="db.ts">
<path fill="#ddfeff" stroke="black" d="M591.08,-975.88C591.08,-975.88 548.92,-975.88 548.92,-975.88 545.96,-975.88 543,-972.92 543,-969.96 543,-969.96 543,-964.04 543,-964.04 543,-961.08 545.96,-958.12 548.92,-958.12 548.92,-958.12 591.08,-958.12 591.08,-958.12 594.04,-958.12 597,-961.08 597,-964.04 597,-964.04 597,-969.96 597,-969.96 597,-972.92 594.04,-975.88 591.08,-975.88"/>
<text text-anchor="start" x="560.25" y="-963.33" font-family="Helvetica,sans-Serif" font-size="9.00">db.ts</text>
</a>
</g>
</g>
<!-- src/app.ts&#45;&gt;src/core/db.ts -->
<g id="edge13" class="edge">
<title>src/app.ts&#45;&gt;src/core/db.ts</title>
<path fill="none" stroke="#000000" stroke-width="2" stroke-opacity="0.200000" d="M107.44,-847.86C172.45,-867.14 346,-917.65 492.75,-952 506.2,-955.15 521.08,-958.18 534.11,-960.68"/>
<polygon fill="#000000" fill-opacity="0.200000" stroke="#000000" stroke-width="2" stroke-opacity="0.200000" points="534.5,-963.27 540.79,-962.32 535.28,-959.14 534.5,-963.27"/>
</g>
<!-- src/app.ts&#45;&gt;src/core/env.ts -->
<g id="edge14" class="edge">
<title>src/app.ts&#45;&gt;src/core/env.ts</title>
<path fill="none" stroke="#000000" stroke-width="2" stroke-opacity="0.200000" d="M87.7,-849.3C118.4,-891.5 252.59,-1063 406.25,-1063 406.25,-1063 406.25,-1063 707.38,-1063 803.27,-1063 847.62,-1109.6 922.75,-1050 951.88,-1026.9 956.85,-979.92 957.24,-954.07"/>
<polygon fill="#000000" fill-opacity="0.200000" stroke="#000000" stroke-width="2" stroke-opacity="0.200000" points="959.33,-954.28 957.21,-948.29 955.13,-954.29 959.33,-954.28"/>
</g>
<!-- src/core/logger/middleware/logger&#45;middleware.ts -->
<g id="node16" class="node">
<title>src/core/logger/middleware/logger&#45;middleware.ts</title>
<g id="a_node16"><a xlink:href="src/core/logger/middleware/logger-middleware.ts" xlink:title="logger&#45;middleware.ts">
<path fill="#ddfeff" stroke="black" d="M751.58,-987.88C751.58,-987.88 661.17,-987.88 661.17,-987.88 658.21,-987.88 655.25,-984.92 655.25,-981.96 655.25,-981.96 655.25,-976.04 655.25,-976.04 655.25,-973.08 658.21,-970.12 661.17,-970.12 661.17,-970.12 751.58,-970.12 751.58,-970.12 754.54,-970.12 757.5,-973.08 757.5,-976.04 757.5,-976.04 757.5,-981.96 757.5,-981.96 757.5,-984.92 754.54,-987.88 751.58,-987.88"/>
<text text-anchor="start" x="663.25" y="-975.33" font-family="Helvetica,sans-Serif" font-size="9.00">logger&#45;middleware.ts</text>
</a>
</g>
</g>
<!-- src/app.ts&#45;&gt;src/core/logger/middleware/logger&#45;middleware.ts -->
<g id="edge15" class="edge">
<title>src/app.ts&#45;&gt;src/core/logger/middleware/logger&#45;middleware.ts</title>
<path fill="none" stroke="#000000" stroke-width="2" stroke-opacity="0.200000" d="M93.13,-849.34C106.83,-859.65 130.18,-876.21 152.25,-887 295.74,-957.17 335.13,-976.1 492.75,-1002 553.49,-1011.98 575.77,-1028.67 631.25,-1002 636.38,-999.53 634.38,-994.95 639.25,-992 641.65,-990.54 644.18,-989.25 646.8,-988.09"/>
<polygon fill="#000000" fill-opacity="0.200000" stroke="#000000" stroke-width="2" stroke-opacity="0.200000" points="648,-990.12 652.86,-986.03 646.51,-986.2 648,-990.12"/>
</g>
<!-- src/auth/config/google&#45;config.ts -->
<g id="node18" class="node">
<title>src/auth/config/google&#45;config.ts</title>
<g id="a_node18"><a xlink:href="src/auth/config/google-config.ts" xlink:title="google&#45;config.ts">
<path fill="#ddfeff" stroke="black" d="M441.96,-169.88C441.96,-169.88 372.54,-169.88 372.54,-169.88 369.58,-169.88 366.62,-166.92 366.62,-163.96 366.62,-163.96 366.62,-158.04 366.62,-158.04 366.62,-155.08 369.58,-152.12 372.54,-152.12 372.54,-152.12 441.96,-152.12 441.96,-152.12 444.92,-152.12 447.88,-155.08 447.88,-158.04 447.88,-158.04 447.88,-163.96 447.88,-163.96 447.88,-166.92 444.92,-169.88 441.96,-169.88"/>
<text text-anchor="start" x="374.62" y="-157.32" font-family="Helvetica,sans-Serif" font-size="9.00">google&#45;config.ts</text>
</a>
</g>
</g>
<!-- src/auth/config/passport&#45;config.ts&#45;&gt;src/auth/config/google&#45;config.ts -->
<g id="edge24" class="edge">
<title>src/auth/config/passport&#45;config.ts&#45;&gt;src/auth/config/google&#45;config.ts</title>
<path fill="none" stroke="#000000" stroke-width="2" stroke-opacity="0.200000" d="M281.47,-183.2C294.43,-180.88 308.66,-178.33 321.75,-176 333.32,-173.94 345.79,-171.72 357.49,-169.64"/>
<polygon fill="#000000" fill-opacity="0.200000" stroke="#000000" stroke-width="2" stroke-opacity="0.200000" points="358.73,-171.2 364.27,-168.08 358,-167.06 358.73,-171.2"/>
</g>
<!-- src/auth/config/passport&#45;config.ts&#45;&gt;src/user/model/user&#45;model.ts -->
<g id="edge26" class="edge">
<title>src/auth/config/passport&#45;config.ts&#45;&gt;src/user/model/user&#45;model.ts</title>
<path fill="none" stroke="#000000" stroke-width="2" stroke-opacity="0.200000" d="M270.37,-200.34C285.94,-206.52 303.43,-216.26 313.75,-231 328.68,-252.31 303.66,-270.3 321.75,-289 372.86,-341.83 428.99,-269.11 484.75,-317 493.28,-324.33 486.5,-331.65 492.75,-341 506.93,-362.2 529.67,-380.65 546.63,-392.61"/>
<polygon fill="#000000" fill-opacity="0.200000" stroke="#000000" stroke-width="2" stroke-opacity="0.200000" points="545.82,-394.97 551.96,-396.63 548.2,-391.51 545.82,-394.97"/>
</g>
<!-- src/auth/config/jwt&#45;config.ts -->
<g id="node21" class="node">
<title>src/auth/config/jwt&#45;config.ts</title>
<g id="a_node21"><a xlink:href="src/auth/config/jwt-config.ts" xlink:title="jwt&#45;config.ts">
<path fill="#ddfeff" stroke="black" d="M433.33,-199.88C433.33,-199.88 381.17,-199.88 381.17,-199.88 378.21,-199.88 375.25,-196.92 375.25,-193.96 375.25,-193.96 375.25,-188.04 375.25,-188.04 375.25,-185.08 378.21,-182.12 381.17,-182.12 381.17,-182.12 433.33,-182.12 433.33,-182.12 436.29,-182.12 439.25,-185.08 439.25,-188.04 439.25,-188.04 439.25,-193.96 439.25,-193.96 439.25,-196.92 436.29,-199.88 433.33,-199.88"/>
<text text-anchor="start" x="383.25" y="-187.32" font-family="Helvetica,sans-Serif" font-size="9.00">jwt&#45;config.ts</text>
</a>
</g>
</g>
<!-- src/auth/config/passport&#45;config.ts&#45;&gt;src/auth/config/jwt&#45;config.ts -->
<g id="edge25" class="edge">
<title>src/auth/config/passport&#45;config.ts&#45;&gt;src/auth/config/jwt&#45;config.ts</title>
<path fill="none" stroke="#000000" stroke-width="2" stroke-opacity="0.200000" d="M281.33,-191C307.46,-191 340.51,-191 366.06,-191"/>
<polygon fill="#000000" fill-opacity="0.200000" stroke="#000000" stroke-width="2" stroke-opacity="0.200000" points="365.76,-193.1 371.76,-191 365.76,-188.9 365.76,-193.1"/>
</g>
<!-- src/auth/strategy/local&#45;login&#45;strategy.ts -->
<g id="node22" class="node">
<title>src/auth/strategy/local&#45;login&#45;strategy.ts</title>
<g id="a_node22"><a xlink:href="src/auth/strategy/local-login-strategy.ts" xlink:title="local&#45;login&#45;strategy.ts">
<path fill="#ddfeff" stroke="black" d="M452.83,-259.88C452.83,-259.88 361.67,-259.88 361.67,-259.88 358.71,-259.88 355.75,-256.92 355.75,-253.96 355.75,-253.96 355.75,-248.04 355.75,-248.04 355.75,-245.08 358.71,-242.12 361.67,-242.12 361.67,-242.12 452.83,-242.12 452.83,-242.12 455.79,-242.12 458.75,-245.08 458.75,-248.04 458.75,-248.04 458.75,-253.96 458.75,-253.96 458.75,-256.92 455.79,-259.88 452.83,-259.88"/>
<text text-anchor="start" x="363.75" y="-247.32" font-family="Helvetica,sans-Serif" font-size="9.00">local&#45;login&#45;strategy.ts</text>
</a>
</g>
</g>
<!-- src/auth/config/passport&#45;config.ts&#45;&gt;src/auth/strategy/local&#45;login&#45;strategy.ts -->
<g id="edge23" class="edge">
<title>src/auth/config/passport&#45;config.ts&#45;&gt;src/auth/strategy/local&#45;login&#45;strategy.ts</title>
<path fill="none" stroke="#000000" stroke-width="2" stroke-opacity="0.200000" d="M255.93,-200.22C272.64,-208.55 298.42,-220.74 321.75,-229 332.68,-232.87 344.63,-236.39 356,-239.43"/>
<polygon fill="#000000" fill-opacity="0.200000" stroke="#000000" stroke-width="2" stroke-opacity="0.200000" points="356.23,-242.18 362.56,-241.65 357.28,-238.11 356.23,-242.18"/>
</g>
<!-- src/core/db.ts&#45;&gt;src/core/logger/logger.ts -->
<g id="edge33" class="edge">
<title>src/core/db.ts&#45;&gt;src/core/logger/logger.ts</title>
<path fill="none" stroke="#000000" stroke-width="2" stroke-opacity="0.200000" d="M597.23,-962.71C618.13,-959.28 647.59,-954.46 670.48,-950.71"/>
<polygon fill="#000000" fill-opacity="0.200000" stroke="#000000" stroke-width="2" stroke-opacity="0.200000" points="671.63,-952.33 677.21,-949.28 670.95,-948.18 671.63,-952.33"/>
</g>
<!-- src/core/db.ts&#45;&gt;src/core/env.ts -->
<g id="edge32" class="edge">
<title>src/core/db.ts&#45;&gt;src/core/env.ts</title>
<path fill="none" stroke="#000000" stroke-width="2" stroke-opacity="0.200000" d="M597.47,-966.54C609.28,-967.73 622.47,-971.22 631.25,-980 643.15,-991.89 627.23,-1005.23 639.25,-1017 661.86,-1039.12 897.22,-1061.68 922.75,-1043 950.8,-1022.48 956.27,-978.63 957.01,-953.91"/>
<polygon fill="#000000" fill-opacity="0.200000" stroke="#000000" stroke-width="2" stroke-opacity="0.200000" points="959.13,-954.19 957.09,-948.17 954.93,-954.15 959.13,-954.19"/>
</g>
<!-- src/core/logger/request&#45;development&#45;logger.ts -->
<g id="node27" class="node">
<title>src/core/logger/request&#45;development&#45;logger.ts</title>
<g id="a_node27"><a xlink:href="src/core/logger/request-development-logger.ts" xlink:title="request&#45;development&#45;logger.ts">
<path fill="#ddfeff" stroke="black" d="M908.83,-966.88C908.83,-966.88 779.42,-966.88 779.42,-966.88 776.46,-966.88 773.5,-963.92 773.5,-960.96 773.5,-960.96 773.5,-955.04 773.5,-955.04 773.5,-952.08 776.46,-949.12 779.42,-949.12 779.42,-949.12 908.83,-949.12 908.83,-949.12 911.79,-949.12 914.75,-952.08 914.75,-955.04 914.75,-955.04 914.75,-960.96 914.75,-960.96 914.75,-963.92 911.79,-966.88 908.83,-966.88"/>
<text text-anchor="start" x="781.5" y="-954.33" font-family="Helvetica,sans-Serif" font-size="9.00">request&#45;development&#45;logger.ts</text>
</a>
</g>
</g>
<!-- src/core/logger/middleware/logger&#45;middleware.ts&#45;&gt;src/core/logger/request&#45;development&#45;logger.ts -->
<g id="edge37" class="edge">
<title>src/core/logger/middleware/logger&#45;middleware.ts&#45;&gt;src/core/logger/request&#45;development&#45;logger.ts</title>
<path fill="none" stroke="#000000" stroke-width="2" stroke-opacity="0.200000" d="M757.92,-971.18C763.27,-970.35 768.76,-969.5 774.27,-968.65"/>
<polygon fill="#000000" fill-opacity="0.200000" stroke="#000000" stroke-width="2" stroke-opacity="0.200000" points="775.3,-970.31 780.9,-967.32 774.65,-966.16 775.3,-970.31"/>
</g>
<!-- src/core/logger/request&#45;production&#45;logger.ts -->
<g id="node28" class="node">
<title>src/core/logger/request&#45;production&#45;logger.ts</title>
<g id="a_node28"><a xlink:href="src/core/logger/request-production-logger.ts" xlink:title="request&#45;production&#45;logger.ts">
<path fill="#ddfeff" stroke="black" d="M903.96,-996.88C903.96,-996.88 784.29,-996.88 784.29,-996.88 781.33,-996.88 778.38,-993.92 778.38,-990.96 778.38,-990.96 778.38,-985.04 778.38,-985.04 778.38,-982.08 781.33,-979.12 784.29,-979.12 784.29,-979.12 903.96,-979.12 903.96,-979.12 906.92,-979.12 909.88,-982.08 909.88,-985.04 909.88,-985.04 909.88,-990.96 909.88,-990.96 909.88,-993.92 906.92,-996.88 903.96,-996.88"/>
<text text-anchor="start" x="786.38" y="-984.33" font-family="Helvetica,sans-Serif" font-size="9.00">request&#45;production&#45;logger.ts</text>
</a>
</g>
</g>
<!-- src/core/logger/middleware/logger&#45;middleware.ts&#45;&gt;src/core/logger/request&#45;production&#45;logger.ts -->
<g id="edge38" class="edge">
<title>src/core/logger/middleware/logger&#45;middleware.ts&#45;&gt;src/core/logger/request&#45;production&#45;logger.ts</title>
<path fill="none" stroke="#000000" stroke-width="2" stroke-opacity="0.200000" d="M757.92,-982.35C761.65,-982.6 765.46,-982.85 769.29,-983.11"/>
<polygon fill="#000000" fill-opacity="0.200000" stroke="#000000" stroke-width="2" stroke-opacity="0.200000" points="769.13,-985.4 775.26,-983.7 769.41,-981.21 769.13,-985.4"/>
</g>
<!-- src/auth/command/create&#45;jwt&#45;token&#45;command.ts -->
<g id="node17" class="node">
<title>src/auth/command/create&#45;jwt&#45;token&#45;command.ts</title>
<g id="a_node17"><a xlink:href="src/auth/command/create-jwt-token-command.ts" xlink:title="create&#45;jwt&#45;token&#45;command.ts">
<path fill="#ddfeff" stroke="black" d="M297.96,-109.88C297.96,-109.88 176.04,-109.88 176.04,-109.88 173.08,-109.88 170.12,-106.92 170.12,-103.96 170.12,-103.96 170.12,-98.04 170.12,-98.04 170.12,-95.08 173.08,-92.12 176.04,-92.12 176.04,-92.12 297.96,-92.12 297.96,-92.12 300.92,-92.12 303.88,-95.08 303.88,-98.04 303.88,-98.04 303.88,-103.96 303.88,-103.96 303.88,-106.92 300.92,-109.88 297.96,-109.88"/>
<text text-anchor="start" x="178.12" y="-97.33" font-family="Helvetica,sans-Serif" font-size="9.00">create&#45;jwt&#45;token&#45;command.ts</text>
</a>
</g>
</g>
<!-- src/auth/command/create&#45;jwt&#45;token&#45;command.ts&#45;&gt;src/api/abstract&#45;command.ts -->
<g id="edge16" class="edge">
<title>src/auth/command/create&#45;jwt&#45;token&#45;command.ts&#45;&gt;src/api/abstract&#45;command.ts</title>
<path fill="none" stroke="#000000" stroke-width="2" stroke-opacity="0.200000" d="M272.29,-110.31C287.75,-116.38 304.56,-126.05 313.75,-141 326.96,-162.49 310.97,-572.19 321.75,-595 333.96,-620.85 360.38,-640.91 380.45,-653.22"/>
<polygon fill="#000000" fill-opacity="0.200000" stroke="#000000" stroke-width="2" stroke-opacity="0.200000" points="379.83,-655.47 386.06,-656.7 381.96,-651.85 379.83,-655.47"/>
</g>
<!-- src/auth/command/create&#45;jwt&#45;token&#45;command.ts&#45;&gt;src/core/env.ts -->
<g id="edge17" class="edge">
<title>src/auth/command/create&#45;jwt&#45;token&#45;command.ts&#45;&gt;src/core/env.ts</title>
<path fill="none" stroke="#000000" stroke-width="2" stroke-opacity="0.200000" d="M304.2,-106.4C370.99,-111.38 477.08,-118 569,-118 569,-118 569,-118 707.38,-118 820.11,-118 865.57,-154.84 922.75,-252 957.4,-310.88 957.24,-815.41 956.84,-917.88"/>
<polygon fill="#000000" fill-opacity="0.200000" stroke="#000000" stroke-width="2" stroke-opacity="0.200000" points="954.73,-917.74 956.8,-923.75 958.93,-917.76 954.73,-917.74"/>
</g>
<!-- src/auth/config/google&#45;config.ts&#45;&gt;src/core/env.ts -->
<g id="edge18" class="edge">
<title>src/auth/config/google&#45;config.ts&#45;&gt;src/core/env.ts</title>
<path fill="none" stroke="#000000" stroke-width="2" stroke-opacity="0.200000" d="M448.24,-163.58C551.28,-172.72 824.65,-213.26 922.75,-389 949.04,-436.1 955.43,-828.94 956.55,-918.07"/>
<polygon fill="#000000" fill-opacity="0.200000" stroke="#000000" stroke-width="2" stroke-opacity="0.200000" points="954.48,-918.01 956.66,-923.98 958.68,-917.96 954.48,-918.01"/>
</g>
<!-- src/user/constants.ts -->
<g id="node19" class="node">
<title>src/user/constants.ts</title>
<g id="a_node19"><a xlink:href="src/user/constants.ts" xlink:title="constants.ts">
<path fill="#ddfeff" stroke="black" d="M732.46,-411.88C732.46,-411.88 680.29,-411.88 680.29,-411.88 677.33,-411.88 674.38,-408.92 674.38,-405.96 674.38,-405.96 674.38,-400.04 674.38,-400.04 674.38,-397.08 677.33,-394.12 680.29,-394.12 680.29,-394.12 732.46,-394.12 732.46,-394.12 735.42,-394.12 738.38,-397.08 738.38,-400.04 738.38,-400.04 738.38,-405.96 738.38,-405.96 738.38,-408.92 735.42,-411.88 732.46,-411.88"/>
<text text-anchor="start" x="682.38" y="-399.32" font-family="Helvetica,sans-Serif" font-size="9.00">constants.ts</text>
</a>
</g>
</g>
<!-- src/auth/config/google&#45;config.ts&#45;&gt;src/user/constants.ts -->
<g id="edge19" class="edge">
<title>src/auth/config/google&#45;config.ts&#45;&gt;src/user/constants.ts</title>
<path fill="none" stroke="#000000" stroke-width="2" stroke-opacity="0.200000" d="M448.34,-161.58C461.12,-163.56 474.57,-167.72 484.75,-176 491.86,-181.78 487.6,-187.42 492.75,-195 550.04,-279.2 645.26,-357.12 685.96,-388.46"/>
<polygon fill="#000000" fill-opacity="0.200000" stroke="#000000" stroke-width="2" stroke-opacity="0.200000" points="684.86,-390.79 690.9,-392.76 687.41,-387.45 684.86,-390.79"/>
</g>
<!-- src/auth/config/google&#45;config.ts&#45;&gt;src/user/model/user&#45;model.ts -->
<g id="edge20" class="edge">
<title>src/auth/config/google&#45;config.ts&#45;&gt;src/user/model/user&#45;model.ts</title>
<path fill="none" stroke="#000000" stroke-width="2" stroke-opacity="0.200000" d="M448.19,-159.42C461.74,-161.05 475.72,-165.56 484.75,-176 496.75,-189.89 484.72,-324.5 492.75,-341 503.81,-363.73 526.65,-381.81 544.46,-393.26"/>
<polygon fill="#000000" fill-opacity="0.200000" stroke="#000000" stroke-width="2" stroke-opacity="0.200000" points="543.53,-395.39 549.74,-396.76 545.74,-391.82 543.53,-395.39"/>
</g>
<!-- src/user/model/user&#45;model.ts&#45;&gt;src/user/constants.ts -->
<g id="edge54" class="edge">
<title>src/user/model/user&#45;model.ts&#45;&gt;src/user/constants.ts</title>
<path fill="none" stroke="#000000" stroke-width="2" stroke-opacity="0.200000" d="M605.95,-405.96C624.13,-405.42 646.43,-404.75 665.31,-404.19"/>
<polygon fill="#000000" fill-opacity="0.200000" stroke="#000000" stroke-width="2" stroke-opacity="0.200000" points="665.33,-406.2 671.26,-403.93 665.2,-402.01 665.33,-406.2"/>
</g>
<!-- src/auth/config/jwt&#45;config.ts&#45;&gt;src/core/env.ts -->
<g id="edge21" class="edge">
<title>src/auth/config/jwt&#45;config.ts&#45;&gt;src/core/env.ts</title>
<path fill="none" stroke="#000000" stroke-width="2" stroke-opacity="0.200000" d="M439.74,-198.98C508.81,-218.09 674.66,-272.93 765.5,-379 913.16,-551.42 948.55,-843.75 955.34,-918.29"/>
<polygon fill="#000000" fill-opacity="0.200000" stroke="#000000" stroke-width="2" stroke-opacity="0.200000" points="953.48,-918.18 956.09,-923.98 957.67,-917.82 953.48,-918.18"/>
</g>
<!-- src/auth/config/jwt&#45;config.ts&#45;&gt;src/user/model/user&#45;model.ts -->
<g id="edge22" class="edge">
<title>src/auth/config/jwt&#45;config.ts&#45;&gt;src/user/model/user&#45;model.ts</title>
<path fill="none" stroke="#000000" stroke-width="2" stroke-opacity="0.200000" d="M439.38,-199.26C455.69,-205.28 474.39,-215.21 484.75,-231 498.2,-251.49 481.76,-319.09 492.75,-341 504.08,-363.59 526.89,-381.7 544.62,-393.19"/>
<polygon fill="#000000" fill-opacity="0.200000" stroke="#000000" stroke-width="2" stroke-opacity="0.200000" points="543.65,-395.31 549.86,-396.7 545.87,-391.74 543.65,-395.31"/>
</g>
<!-- src/auth/strategy/local&#45;login&#45;strategy.ts&#45;&gt;src/user/model/user&#45;model.ts -->
<g id="edge31" class="edge">
<title>src/auth/strategy/local&#45;login&#45;strategy.ts&#45;&gt;src/user/model/user&#45;model.ts</title>
<path fill="none" stroke="#000000" stroke-width="2" stroke-opacity="0.200000" d="M433.14,-260.31C450.34,-268.04 472.28,-280.75 484.75,-299 495.47,-314.69 483.26,-324.54 492.75,-341 505.41,-362.97 528.15,-381.2 545.51,-392.9"/>
<polygon fill="#000000" fill-opacity="0.200000" stroke="#000000" stroke-width="2" stroke-opacity="0.200000" points="544.88,-395.29 551.05,-396.8 547.17,-391.77 544.88,-395.29"/>
</g>
<!-- src/user/command/create&#45;user&#45;with&#45;credentials.ts&#45;&gt;src/api/abstract&#45;command.ts -->
<g id="edge42" class="edge">
<title>src/user/command/create&#45;user&#45;with&#45;credentials.ts&#45;&gt;src/api/abstract&#45;command.ts</title>
<path fill="none" stroke="#000000" stroke-width="2" stroke-opacity="0.200000" d="M377.65,-506.29C360.04,-512.86 338.03,-523 321.75,-537 319.32,-539.09 318.68,-539.93 317.75,-543 314.59,-553.42 314.59,-630.58 317.75,-641 321.94,-654.85 334.13,-662.2 348.22,-665.89"/>
<polygon fill="#000000" fill-opacity="0.200000" stroke="#000000" stroke-width="2" stroke-opacity="0.200000" points="348.38,-668.49 354.68,-667.67 349.24,-664.38 348.38,-668.49"/>
</g>
<!-- src/user/command/create&#45;user&#45;with&#45;credentials.ts&#45;&gt;src/core/logger/logger.ts -->
<g id="edge45" class="edge">
<title>src/user/command/create&#45;user&#45;with&#45;credentials.ts&#45;&gt;src/core/logger/logger.ts</title>
<path fill="none" stroke="#000000" stroke-width="2" stroke-opacity="0.200000" d="M437.75,-506.35C488.47,-524.25 590.7,-568.69 631.25,-647 645.36,-674.24 620.95,-898.38 639.25,-923 646.63,-932.92 658.65,-938.43 670.44,-941.46"/>
<polygon fill="#000000" fill-opacity="0.200000" stroke="#000000" stroke-width="2" stroke-opacity="0.200000" points="670.6,-944.07 676.91,-943.26 671.48,-939.96 670.6,-944.07"/>
</g>
<!-- src/user/command/create&#45;user&#45;with&#45;credentials.ts&#45;&gt;src/core/mongo&#45;constants.ts -->
<g id="edge46" class="edge">
<title>src/user/command/create&#45;user&#45;with&#45;credentials.ts&#45;&gt;src/core/mongo&#45;constants.ts</title>
<path fill="none" stroke="#000000" stroke-width="2" stroke-opacity="0.200000" d="M442.85,-506.23C458.45,-512.3 475.43,-521.97 484.75,-537 496.05,-555.23 478.85,-906.66 492.75,-923 498.13,-929.32 505.34,-933.41 513.2,-935.98"/>
<polygon fill="#000000" fill-opacity="0.200000" stroke="#000000" stroke-width="2" stroke-opacity="0.200000" points="513.58,-938.75 519.91,-938.19 514.62,-934.68 513.58,-938.75"/>
</g>
<!-- src/user/command/create&#45;user&#45;with&#45;credentials.ts&#45;&gt;src/user/model/user&#45;model.ts -->
<g id="edge41" class="edge">
<title>src/user/command/create&#45;user&#45;with&#45;credentials.ts&#45;&gt;src/user/model/user&#45;model.ts</title>
<path fill="none" stroke="#000000" stroke-width="2" stroke-opacity="0.200000" d="M470.57,-487.74C475.48,-486.12 480.26,-484.23 484.75,-482 513.76,-467.61 540.45,-440.51 555.71,-423.13"/>
<polygon fill="#000000" fill-opacity="0.200000" stroke="#000000" stroke-width="2" stroke-opacity="0.200000" points="558.21,-424.27 560.52,-418.34 555.02,-421.53 558.21,-424.27"/>
</g>
<!-- src/core/error/duplicate&#45;entity&#45;error.ts -->
<g id="node25" class="node">
<title>src/core/error/duplicate&#45;entity&#45;error.ts</title>
<g id="a_node25"><a xlink:href="src/core/error/duplicate-entity-error.ts" xlink:title="duplicate&#45;entity&#45;error.ts">
<path fill="#ddfeff" stroke="black" d="M618.96,-893.88C618.96,-893.88 521.04,-893.88 521.04,-893.88 518.08,-893.88 515.12,-890.92 515.12,-887.96 515.12,-887.96 515.12,-882.04 515.12,-882.04 515.12,-879.08 518.08,-876.12 521.04,-876.12 521.04,-876.12 618.96,-876.12 618.96,-876.12 621.92,-876.12 624.88,-879.08 624.88,-882.04 624.88,-882.04 624.88,-887.96 624.88,-887.96 624.88,-890.92 621.92,-893.88 618.96,-893.88"/>
<text text-anchor="start" x="523.12" y="-881.33" font-family="Helvetica,sans-Serif" font-size="9.00">duplicate&#45;entity&#45;error.ts</text>
</a>
</g>
</g>
<!-- src/user/command/create&#45;user&#45;with&#45;credentials.ts&#45;&gt;src/core/error/duplicate&#45;entity&#45;error.ts -->
<g id="edge43" class="edge">
<title>src/user/command/create&#45;user&#45;with&#45;credentials.ts&#45;&gt;src/core/error/duplicate&#45;entity&#45;error.ts</title>
<path fill="none" stroke="#000000" stroke-width="2" stroke-opacity="0.200000" d="M442.83,-506.25C458.42,-512.31 475.41,-521.98 484.75,-537 494.53,-552.71 480.82,-855.85 492.75,-870 496.61,-874.57 501.41,-878.01 506.73,-880.58"/>
<polygon fill="#000000" fill-opacity="0.200000" stroke="#000000" stroke-width="2" stroke-opacity="0.200000" points="506.47,-882.51 512.82,-882.73 507.99,-878.59 506.47,-882.51"/>
</g>
<!-- src/core/error/schema&#45;validation&#45;error.ts -->
<g id="node26" class="node">
<title>src/core/error/schema&#45;validation&#45;error.ts</title>
<g id="a_node26"><a xlink:href="src/core/error/schema-validation-error.ts" xlink:title="schema&#45;validation&#45;error.ts">
<path fill="#ddfeff" stroke="black" d="M625.33,-863.88C625.33,-863.88 514.67,-863.88 514.67,-863.88 511.71,-863.88 508.75,-860.92 508.75,-857.96 508.75,-857.96 508.75,-852.04 508.75,-852.04 508.75,-849.08 511.71,-846.12 514.67,-846.12 514.67,-846.12 625.33,-846.12 625.33,-846.12 628.29,-846.12 631.25,-849.08 631.25,-852.04 631.25,-852.04 631.25,-857.96 631.25,-857.96 631.25,-860.92 628.29,-863.88 625.33,-863.88"/>
<text text-anchor="start" x="516.75" y="-851.33" font-family="Helvetica,sans-Serif" font-size="9.00">schema&#45;validation&#45;error.ts</text>
</a>
</g>
</g>
<!-- src/user/command/create&#45;user&#45;with&#45;credentials.ts&#45;&gt;src/core/error/schema&#45;validation&#45;error.ts -->
<g id="edge44" class="edge">
<title>src/user/command/create&#45;user&#45;with&#45;credentials.ts&#45;&gt;src/core/error/schema&#45;validation&#45;error.ts</title>
<path fill="none" stroke="#000000" stroke-width="2" stroke-opacity="0.200000" d="M442.8,-506.26C458.39,-512.33 475.38,-522 484.75,-537 501.71,-564.15 474.36,-798.8 492.75,-825 497.84,-832.25 504.96,-837.75 512.82,-841.92"/>
<polygon fill="#000000" fill-opacity="0.200000" stroke="#000000" stroke-width="2" stroke-opacity="0.200000" points="512.56,-844.04 518.89,-844.66 514.33,-840.23 512.56,-844.04"/>
</g>
<!-- src/auth/middleware/require&#45;login&#45;middleware.ts -->
<g id="node24" class="node">
<title>src/auth/middleware/require&#45;login&#45;middleware.ts</title>
<g id="a_node24"><a xlink:href="src/auth/middleware/require-login-middleware.ts" xlink:title="require&#45;login&#45;middleware.ts">
<path fill="#ccffcc" stroke="black" d="M295.33,-49.88C295.33,-49.88 178.67,-49.88 178.67,-49.88 175.71,-49.88 172.75,-46.92 172.75,-43.96 172.75,-43.96 172.75,-38.04 172.75,-38.04 172.75,-35.08 175.71,-32.12 178.67,-32.12 178.67,-32.12 295.33,-32.12 295.33,-32.12 298.29,-32.12 301.25,-35.08 301.25,-38.04 301.25,-38.04 301.25,-43.96 301.25,-43.96 301.25,-46.92 298.29,-49.88 295.33,-49.88"/>
<text text-anchor="start" x="180.75" y="-37.33" font-family="Helvetica,sans-Serif" font-size="9.00">require&#45;login&#45;middleware.ts</text>
</a>
</g>
</g>
<!-- src/core/error/duplicate&#45;entity&#45;error.ts&#45;&gt;src/core/error/application&#45;error.ts -->
<g id="edge34" class="edge">
<title>src/core/error/duplicate&#45;entity&#45;error.ts&#45;&gt;src/core/error/application&#45;error.ts</title>
<path fill="none" stroke="#000000" stroke-width="2" stroke-opacity="0.200000" d="M625.27,-878.94C633.81,-877.99 642.64,-877 651.18,-876.05"/>
<polygon fill="#000000" fill-opacity="0.200000" stroke="#000000" stroke-width="2" stroke-opacity="0.200000" points="651.22,-877.82 656.95,-875.07 650.75,-873.65 651.22,-877.82"/>
</g>
<!-- src/core/error/schema&#45;validation&#45;error.ts&#45;&gt;src/core/error/application&#45;error.ts -->
<g id="edge35" class="edge">
<title>src/core/error/schema&#45;validation&#45;error.ts&#45;&gt;src/core/error/application&#45;error.ts</title>
<path fill="none" stroke="#000000" stroke-width="2" stroke-opacity="0.200000" d="M631.5,-861.75C638.02,-862.48 644.62,-863.22 651.05,-863.94"/>
<polygon fill="#000000" fill-opacity="0.200000" stroke="#000000" stroke-width="2" stroke-opacity="0.200000" points="650.5,-866.32 656.7,-864.9 650.97,-862.15 650.5,-866.32"/>
</g>
<!-- src/core/logger/request&#45;production&#45;logger.ts&#45;&gt;src/core/env.ts -->
<g id="edge39" class="edge">
<title>src/core/logger/request&#45;production&#45;logger.ts&#45;&gt;src/core/env.ts</title>
<path fill="none" stroke="#000000" stroke-width="2" stroke-opacity="0.200000" d="M910.21,-978.71C914.57,-977.1 918.8,-975.21 922.75,-973 931.78,-967.96 939.73,-959.66 945.67,-952.19"/>
<polygon fill="#000000" fill-opacity="0.200000" stroke="#000000" stroke-width="2" stroke-opacity="0.200000" points="948.01,-953.23 949.91,-947.16 944.64,-950.72 948.01,-953.23"/>
</g>
<!-- src/newsroom/model/newsroom&#45;model.ts -->
<g id="node29" class="node">
<title>src/newsroom/model/newsroom&#45;model.ts</title>
<g id="a_node29"><a xlink:href="src/newsroom/model/newsroom-model.ts" xlink:title="newsroom&#45;model.ts">
<path fill="#ccffcc" stroke="black" d="M122.33,-996.88C122.33,-996.88 37.92,-996.88 37.92,-996.88 34.96,-996.88 32,-993.92 32,-990.96 32,-990.96 32,-985.04 32,-985.04 32,-982.08 34.96,-979.12 37.92,-979.12 37.92,-979.12 122.33,-979.12 122.33,-979.12 125.29,-979.12 128.25,-982.08 128.25,-985.04 128.25,-985.04 128.25,-990.96 128.25,-990.96 128.25,-993.92 125.29,-996.88 122.33,-996.88"/>
<text text-anchor="start" x="40" y="-984.33" font-family="Helvetica,sans-Serif" font-size="9.00">newsroom&#45;model.ts</text>
</a>
</g>
</g>
<!-- src/types/express&#45;types.ts -->
<g id="node30" class="node">
<title>src/types/express&#45;types.ts</title>
<g id="a_node30"><a xlink:href="src/types/express-types.ts" xlink:title="express&#45;types.ts">
<path fill="#ddfeff" stroke="black" d="M442.33,-345.88C442.33,-345.88 372.17,-345.88 372.17,-345.88 369.21,-345.88 366.25,-342.92 366.25,-339.96 366.25,-339.96 366.25,-334.04 366.25,-334.04 366.25,-331.08 369.21,-328.12 372.17,-328.12 372.17,-328.12 442.33,-328.12 442.33,-328.12 445.29,-328.12 448.25,-331.08 448.25,-334.04 448.25,-334.04 448.25,-339.96 448.25,-339.96 448.25,-342.92 445.29,-345.88 442.33,-345.88"/>
<text text-anchor="start" x="374.25" y="-333.32" font-family="Helvetica,sans-Serif" font-size="9.00">express&#45;types.ts</text>
</a>
</g>
</g>
<!-- src/types/express&#45;types.ts&#45;&gt;src/user/model/user&#45;model.ts -->
<g id="edge40" class="edge">
<title>src/types/express&#45;types.ts&#45;&gt;src/user/model/user&#45;model.ts</title>
<path fill="none" stroke="#000000" stroke-width="2" stroke-opacity="0.200000" d="M429.6,-346.3C457.82,-358.59 507.69,-380.3 539.5,-394.15"/>
<polygon fill="#000000" fill-opacity="0.200000" stroke="#000000" stroke-width="2" stroke-opacity="0.200000" points="539.23,-396.2 545.57,-396.67 540.9,-392.35 539.23,-396.2"/>
</g>
<!-- src/user/command/describe&#45;user&#45;command.ts -->
<g id="node31" class="node">
<title>src/user/command/describe&#45;user&#45;command.ts</title>
<g id="a_node31"><a xlink:href="src/user/command/describe-user-command.ts" xlink:title="describe&#45;user&#45;command.ts">
<path fill="#ddfeff" stroke="black" d="M463.71,-475.88C463.71,-475.88 350.79,-475.88 350.79,-475.88 347.83,-475.88 344.88,-472.92 344.88,-469.96 344.88,-469.96 344.88,-464.04 344.88,-464.04 344.88,-461.08 347.83,-458.12 350.79,-458.12 350.79,-458.12 463.71,-458.12 463.71,-458.12 466.67,-458.12 469.62,-461.08 469.62,-464.04 469.62,-464.04 469.62,-469.96 469.62,-469.96 469.62,-472.92 466.67,-475.88 463.71,-475.88"/>
<text text-anchor="start" x="352.88" y="-463.32" font-family="Helvetica,sans-Serif" font-size="9.00">describe&#45;user&#45;command.ts</text>
</a>
</g>
</g>
<!-- src/user/command/describe&#45;user&#45;command.ts&#45;&gt;src/api/abstract&#45;command.ts -->
<g id="edge48" class="edge">
<title>src/user/command/describe&#45;user&#45;command.ts&#45;&gt;src/api/abstract&#45;command.ts</title>
<path fill="none" stroke="#000000" stroke-width="2" stroke-opacity="0.200000" d="M344.67,-465.56C332.09,-468.82 321.54,-475.47 317.75,-488 312.82,-504.27 312.82,-624.73 317.75,-641 321.94,-654.85 334.13,-662.2 348.22,-665.89"/>
<polygon fill="#000000" fill-opacity="0.200000" stroke="#000000" stroke-width="2" stroke-opacity="0.200000" points="348.38,-668.49 354.68,-667.67 349.24,-664.38 348.38,-668.49"/>
</g>
<!-- src/user/command/describe&#45;user&#45;command.ts&#45;&gt;src/core/logger/logger.ts -->
<g id="edge49" class="edge">
<title>src/user/command/describe&#45;user&#45;command.ts&#45;&gt;src/core/logger/logger.ts</title>
<path fill="none" stroke="#000000" stroke-width="2" stroke-opacity="0.200000" d="M461.61,-476.29C469.42,-477.99 477.33,-479.9 484.75,-482 488.4,-483.04 489.15,-483.79 492.75,-485 553.62,-505.39 592.32,-474.96 631.25,-526 644.63,-543.54 626.17,-905.24 639.25,-923 646.64,-933.03 658.79,-938.55 670.67,-941.57"/>
<polygon fill="#000000" fill-opacity="0.200000" stroke="#000000" stroke-width="2" stroke-opacity="0.200000" points="670.9,-944.18 677.2,-943.35 671.76,-940.07 670.9,-944.18"/>
</g>
<!-- src/user/command/describe&#45;user&#45;command.ts&#45;&gt;src/user/model/user&#45;model.ts -->
<g id="edge47" class="edge">
<title>src/user/command/describe&#45;user&#45;command.ts&#45;&gt;src/user/model/user&#45;model.ts</title>
<path fill="none" stroke="#000000" stroke-width="2" stroke-opacity="0.200000" d="M444.79,-457.65C457.56,-454.07 471.91,-449.72 484.75,-445 504.5,-437.75 526.13,-427.95 542.52,-420.13"/>
<polygon fill="#000000" fill-opacity="0.200000" stroke="#000000" stroke-width="2" stroke-opacity="0.200000" points="544.09,-421.73 548.58,-417.23 542.26,-417.95 544.09,-421.73"/>
</g>
<!-- src/user/error/duplicate&#45;user&#45;error.ts -->
<g id="node32" class="node">
<title>src/user/error/duplicate&#45;user&#45;error.ts</title>
<g id="a_node32"><a xlink:href="src/user/error/duplicate-user-error.ts" xlink:title="duplicate&#45;user&#45;error.ts">
<path fill="#ddfeff" stroke="black" d="M454.33,-565.88C454.33,-565.88 360.17,-565.88 360.17,-565.88 357.21,-565.88 354.25,-562.92 354.25,-559.96 354.25,-559.96 354.25,-554.04 354.25,-554.04 354.25,-551.08 357.21,-548.12 360.17,-548.12 360.17,-548.12 454.33,-548.12 454.33,-548.12 457.29,-548.12 460.25,-551.08 460.25,-554.04 460.25,-554.04 460.25,-559.96 460.25,-559.96 460.25,-562.92 457.29,-565.88 454.33,-565.88"/>
<text text-anchor="start" x="362.25" y="-553.33" font-family="Helvetica,sans-Serif" font-size="9.00">duplicate&#45;user&#45;error.ts</text>
</a>
</g>
</g>
<!-- src/user/error/duplicate&#45;user&#45;error.ts&#45;&gt;src/core/error/application&#45;error.ts -->
<g id="edge50" class="edge">
<title>src/user/error/duplicate&#45;user&#45;error.ts&#45;&gt;src/core/error/application&#45;error.ts</title>
<path fill="none" stroke="#000000" stroke-width="2" stroke-opacity="0.200000" d="M460.56,-562.16C513.25,-570.42 592.17,-591.8 631.25,-647 642.69,-663.16 629.6,-807.71 639.25,-825 646.93,-838.76 660.79,-849.16 673.84,-856.48"/>
<polygon fill="#000000" fill-opacity="0.200000" stroke="#000000" stroke-width="2" stroke-opacity="0.200000" points="673.51,-858.72 679.8,-859.64 675.46,-855 673.51,-858.72"/>
</g>
</g>
</svg>
